<svg width="228" height="495" viewBox="0 0 228 495" fill="none" xmlns="http://www.w3.org/2000/svg">
<path d="M192.97 157.347L290.229 167.608L201.501 138.533L24.0455 0L192.97 157.347Z" fill="#FF5050"/>
<path d="M158.844 213.786L90.5915 95.7762L175.907 183.001L450.622 208.655L158.844 213.786Z" fill="#FF5050"/>
<path d="M233.27 297.824L175.401 376.845L245.18 314.693L454 230.909L233.27 297.824Z" fill="#FF5050"/>
<path d="M201.843 239.831L337.93 240.236L219.767 270.121L59.18 495L201.843 239.831Z" fill="#FF5050"/>
<path d="M91.4187 259.793L49.1717 171.386L70.962 262.368L46.2391 486.456L91.4187 259.793Z" fill="#FF5050"/>
<path d="M157.259 259.35L92.7502 379.457L122.159 260.916L0 12.9503L157.259 259.35Z" fill="#FF5050"/>
</svg>
