<svg width="390" height="495" viewBox="0 0 390 495" fill="none" xmlns="http://www.w3.org/2000/svg">
<path d="M177.97 157.347L275.229 167.608L186.501 138.533L9.0455 0L177.97 157.347Z" fill="#FF5050"/>
<path d="M143.844 213.786L75.5915 95.7762L160.907 183.001L435.622 208.655L143.844 213.786Z" fill="#FF5050"/>
<path d="M218.27 297.824L160.401 376.845L230.18 314.693L439 230.909L218.27 297.824Z" fill="#FF5050"/>
<path d="M186.843 239.831L322.93 240.236L204.767 270.121L44.18 495L186.843 239.831Z" fill="#FF5050"/>
<path d="M76.4187 259.793L34.1717 171.386L55.962 262.368L31.2391 486.456L76.4187 259.793Z" fill="#FF5050"/>
<path d="M142.259 259.35L77.7502 379.457L107.159 260.916L-15 12.9503L142.259 259.35Z" fill="#FF5050"/>
</svg>
